<?xml version="1.0" encoding="utf-8"?>
<!-- Generator: Adobe Illustrator 19.2.1, SVG Export Plug-In . SVG Version: 6.00 Build 0)  -->
<svg version="1.1" id="layer" xmlns="http://www.w3.org/2000/svg" xmlns:xlink="http://www.w3.org/1999/xlink" x="0px" y="0px"
	 viewBox="0 0 652 652" style="enable-background:new 0 0 652 652;" xml:space="preserve">
<style type="text/css">
	.st0{fill:#6E706E;}
</style>
<g>
	<g>
		<path class="st0" d="M59.2,356.8c-10.9-2.5-18.8-9.2-22.6-18.2c-3.5-8.4-3-17.9,1-27c3.8-8.6,10.4-16.1,18.9-21.5
			c8.5-5.4,18.1-8.3,27.7-8.2l3.6-10.7c-25.2,0.5-50.8,16.9-61.4,39.3c-5.9,12.4-6.8,25.3-3,36.6c4.2,12.5,14.4,23,30,27.5
			L59.2,356.8z"/>
		<path class="st0" d="M84.2,281.8l-3.8,11.5c6.5,0.3,12.2,2.8,16,7.3c4,4.7,5.3,11,3.6,17.7c-3.7,14.7-20.3,25.2-35.4,22.4
			L59.2,357c25.2,5.8,53.1-11.8,58.2-36.9c2.3-11.3-1-21.3-7.6-28.1C103.7,285.6,94.6,281.9,84.2,281.8"/>
		<path class="st0" d="M80.4,293.3c-12.8-0.5-26.1,8-30.8,19.7c-5,12.5,1.1,25.3,15,27.8L80.4,293.3z"/>
		<polygon class="st0" points="129.3,303 176.3,303 172.8,312.9 156.6,312.9 144.4,347.1 129.7,347.1 141.9,312.9 125.8,312.9 		"/>
		<path class="st0" d="M206.4,301.7c15.6,0,26.9,5.1,20.3,23.4c-6.5,18.3-21.5,23.4-37,23.4s-26.9-5.1-20.3-23.4
			C175.8,306.8,190.8,301.7,206.4,301.7 M193.2,338.6c7.9,0,14.7-4.3,18-13.5c3.3-9.2-0.4-13.5-8.3-13.5c-7.8,0-14.7,4.3-18,13.5
			C181.6,334.3,185.3,338.6,193.2,338.6"/>
		<path class="st0" d="M266.8,301.7c15.6,0,26.9,5.1,20.3,23.4c-6.5,18.3-21.5,23.4-37,23.4s-26.9-5.1-20.3-23.4
			C236.3,306.8,251.3,301.7,266.8,301.7 M253.7,338.6c7.9,0,14.7-4.3,18-13.5c3.3-9.2-0.4-13.5-8.3-13.5c-7.8,0-14.7,4.3-18,13.5
			C242,334.3,245.8,338.6,253.7,338.6"/>
		<polygon class="st0" points="298,303 314.9,303 325.4,330.6 325.6,330.6 335.4,303 349.6,303 333.9,347.1 317.6,347.1 
			306.5,319.2 306.4,319.2 296.4,347.1 282.2,347.1 		"/>
		<polygon class="st0" points="354,303 401,303 397.5,312.9 381.3,312.9 369.1,347.1 354.4,347.1 366.6,312.9 350.5,312.9 		"/>
		<path class="st0" d="M405.4,303h35.3c10.8,0,13,4.9,10.4,12.3c-2.1,5.9-6.3,9.1-10.6,10.1l0,0.1c2.5,0.9,3.8,3.1,2.5,7.9
			c-2.4,8.7-3.2,11.5-2.1,13.7h-16.1c-0.1-1.9,0.7-4.5,1.5-6.5c2.5-6.9,0.6-8.1-3.1-8.1h-13.4l-5.3,14.7h-14.7L405.4,303z
			 M413.1,322.5h14.1c3.6,0,6.2-1.8,7.2-4.9c1-2.9-0.2-4.8-3.8-4.8h-14.1L413.1,322.5z"/>
		<path class="st0" d="M475.5,303h18l3.2,44.1h-15.7l-0.1-7.2h-19.3l-5.2,7.2h-15.7L475.5,303z M480.5,314.1h-0.1l-12.1,16.7h12.3
			L480.5,314.1z"/>
		<path class="st0" d="M555.1,330.1c-5.2,9.5-13.6,18.3-34.4,18.3c-18.6,0-24.8-8.2-19.4-23.4c5.3-14.8,16.9-23.4,36.1-23.4
			c13.5,0,23.5,3.1,21.2,18.3h-16.4c0.3-3.1,0-8.5-8.3-8.5c-9.2,0-14.4,6.2-17,13.5c-2.6,7.3-2.1,13.5,7.4,13.5
			c6.6,0,11.7-3.3,14.6-8.5H555.1z"/>
		<polygon class="st0" points="568.4,303 583.1,303 576.9,320.3 601.5,303 621,303 594.9,320.4 606.8,347.1 587.2,347.1 
			579.9,329.5 571.8,334.7 567.3,347.1 552.6,347.1 		"/>
	</g>
</g>
</svg>
